<!-- Generated by IcoMoon.io -->
<svg version="1.1" xmlns="http://www.w3.org/2000/svg" width="32" height="32" viewBox="0 0 32 32">
<path d="M21.858 6.167c0-0.022 0-0.048 0-0.075 0-3.259-2.642-5.9-5.9-5.9s-5.9 2.642-5.9 5.9c0 0.026 0 0.052 0.001 0.079l-0-0.004c0.042 3.226 2.667 5.826 5.9 5.826s5.858-2.599 5.9-5.822l0-0.004zM14.581 15.084c-3.646-2.232-9.553-2.845-12.524-3.015-0.999-0.056-1.832 0.704-1.832 1.666v13.692c0 0.88 0.712 1.615 1.628 1.662 2.682 0.141 8.111 0.656 11.864 2.546 0.576 0.29 1.258-0.104 1.258-0.729v-15.118c0-0.001 0-0.002 0-0.004 0-0.296-0.157-0.555-0.392-0.698l-0.004-0.002zM29.86 12.070c-2.971 0.169-8.878 0.782-12.524 3.015-0.238 0.149-0.393 0.41-0.393 0.708 0 0.003 0 0.005 0 0.008v-0 15.106c0 0.626 0.684 1.021 1.261 0.73 3.752-1.888 9.177-2.404 11.86-2.544 0.917-0.048 1.628-0.782 1.628-1.663v-13.694c0-0.96-0.833-1.721-1.832-1.665z"></path>
</svg>
