<!-- Generated by IcoMoon.io -->
<svg version="1.1" xmlns="http://www.w3.org/2000/svg" width="32" height="32" viewBox="0 0 32 32">
<path d="M7.25 32h-6.562v-21.099h6.562v21.099zM3.934 8.078c-2.047 0-3.74-1.764-3.74-3.881 0-2.046 1.692-3.74 3.739-3.74 2.116 0 3.81 1.694 3.81 3.74 0 2.117-1.693 3.881-3.81 3.881zM31.736 32h-6.492v-10.232c0-2.47-0.070-5.574-3.458-5.574-3.386 0-3.881 2.611-3.881 5.363v10.443h-6.562v-21.099h6.28v2.893h0.071c0.917-1.623 3.035-3.387 6.209-3.387 6.633 0 7.904 4.375 7.904 10.020v11.573h-0.071z"></path>
</svg>
