<!-- Generated by IcoMoon.io -->
<svg version="1.1" xmlns="http://www.w3.org/2000/svg" width="34" height="32" viewBox="0 0 34 32">
<path d="M34.067 6.933v1.133c0 0 0 0.001 0 0.001 0 0.313-0.254 0.566-0.566 0.566-0 0-0.001 0-0.001 0h-1.699v0.85c0 0.469-0.381 0.849-0.85 0.849h-27.767c-0.469-0.001-0.848-0.38-0.849-0.849v-0.85h-1.701c0 0 0 0 0 0-0.313 0-0.566-0.254-0.566-0.566 0-0 0-0.001 0-0.001v0-1.133c0-0.234 0.143-0.435 0.346-0.521l0.004-0.001 16.434-6.236c0.064-0.027 0.138-0.043 0.217-0.043s0.153 0.016 0.22 0.045l-0.004-0.001 16.434 6.236c0.207 0.087 0.35 0.289 0.35 0.523 0 0 0 0 0 0v-0zM32.367 28.467h-30.601c-0.939 0-1.699 0.761-1.699 1.699v1.134c0 0 0 0 0 0 0 0.312 0.253 0.566 0.565 0.566h32.867c0 0 0.001 0 0.001 0 0.313 0 0.566-0.254 0.566-0.566 0 0 0 0 0 0v0-1.135c0-0.939-0.762-1.699-1.7-1.699zM5.733 11.467v13.6h-2.549c-0.47 0-0.85 0.381-0.85 0.85v1.417h29.467v-1.417c0-0.47-0.381-0.85-0.85-0.85v0h-2.55v-13.6h-4.533v13.6h-4.533v-13.6h-4.533v13.6h-4.533v-13.6h-4.533z"></path>
</svg>
