<!-- Generated by IcoMoon.io -->
<svg version="1.1" xmlns="http://www.w3.org/2000/svg" width="45" height="32" viewBox="0 0 45 32">
<path d="M43.665 5.831c0.972 3.403 0.972 10.694 0.972 10.694s0 7.211-0.972 10.695c-0.486 1.944-2.027 3.401-3.89 3.889-3.483 0.891-17.256 0.891-17.256 0.891s-13.855 0-17.338-0.891c-1.863-0.486-3.403-1.944-3.889-3.889-0.972-3.484-0.972-10.695-0.972-10.695s0-7.291 0.972-10.694c0.486-1.944 2.025-3.484 3.887-3.97 3.486-0.972 17.339-0.972 17.339-0.972s13.773 0 17.256 0.972c1.864 0.486 3.404 2.027 3.89 3.97zM17.982 23.087l11.505-6.562-11.505-6.562v13.125z"></path>
</svg>
