<!-- Generated by IcoMoon.io -->
<svg version="1.1" xmlns="http://www.w3.org/2000/svg" width="32" height="32" viewBox="0 0 32 32">
<path d="M31.119 8.881l-2.882 2.882c-0.136 0.136-0.324 0.22-0.531 0.22s-0.395-0.084-0.531-0.22l-6.938-6.937c-0.136-0.136-0.221-0.324-0.221-0.532s0.084-0.396 0.221-0.532v0l2.882-2.88c0.544-0.542 1.294-0.877 2.122-0.877s1.578 0.335 2.122 0.877l3.755 3.755c0.545 0.542 0.882 1.293 0.882 2.122s-0.337 1.58-0.882 2.122l-0 0zM17.763 6.237l-16.413 16.413-1.324 7.593c-0.014 0.077-0.022 0.167-0.022 0.258 0 0.83 0.673 1.502 1.502 1.502 0.091 0 0.18-0.008 0.267-0.024l-0.009 0.001 7.593-1.331 16.413-16.413c0.136-0.136 0.22-0.324 0.22-0.531s-0.084-0.395-0.22-0.531l-6.936-6.938c-0.137-0.136-0.326-0.22-0.535-0.22s-0.398 0.084-0.535 0.22l0-0zM7.755 21.244c-0.159-0.158-0.258-0.377-0.258-0.619s0.099-0.461 0.258-0.619l9.626-9.625c0.158-0.159 0.377-0.257 0.618-0.257s0.46 0.098 0.618 0.257l0 0c0.159 0.158 0.258 0.377 0.258 0.619s-0.099 0.461-0.258 0.619l-9.625 9.625c-0.158 0.159-0.377 0.258-0.619 0.258s-0.461-0.099-0.619-0.258l-0-0zM5.499 26.5h3v2.268l-4.031 0.707-1.944-1.944 0.706-4.031h2.268v3z"></path>
</svg>
