<svg aria-hidden="true" style="position: absolute; width: 0; height: 0; overflow: hidden;" version="1.1" xmlns="http://www.w3.org/2000/svg" xmlns:xlink="http://www.w3.org/1999/xlink">
<defs>
<symbol id="icon-book-open" viewBox="0 0 41 32">
<path d="M38.196 0.196c-3.861 0.221-11.532 1.019-16.268 3.924-0.328 0.2-0.513 0.557-0.513 0.929v25.676c0 0.815 0.89 1.331 1.64 0.952 4.872-2.457 11.921-3.128 15.405-3.31 1.19-0.062 2.115-1.018 2.115-2.164v-23.839c0-1.25-1.081-2.24-2.379-2.168zM18.649 4.121c-4.736-2.906-12.409-3.704-16.268-3.924-1.3-0.073-2.38 0.917-2.38 2.167v23.84c0 1.146 0.925 2.101 2.115 2.164 3.486 0.183 10.537 0.854 15.412 3.314 0.747 0.377 1.634-0.137 1.634-0.951v-25.694c0-0.002 0-0.005 0-0.007 0-0.383-0.203-0.72-0.507-0.907l-0.005-0.003z"></path>
</symbol>
<symbol id="icon-angel-right" viewBox="0 0 24 32">
<path  d="M21.029 17.595l-12.752 12.747c-0.406 0.409-0.968 0.662-1.589 0.662s-1.183-0.253-1.589-0.661l-2.117-2.117c-0.408-0.406-0.66-0.967-0.66-1.588s0.252-1.182 0.66-1.588l9.037-9.040-9.037-9.037c-0.408-0.406-0.66-0.967-0.66-1.588s0.252-1.182 0.66-1.588l0-0 2.109-2.141c0.406-0.409 0.968-0.661 1.589-0.661s1.183 0.253 1.589 0.661l12.749 12.749c0.891 0.88 0.891 2.307 0.011 3.189z"></path>
</symbol>
<symbol id="icon-book-reader" viewBox="0 0 32 32">
<path d="M21.858 6.167c0-0.022 0-0.048 0-0.075 0-3.259-2.642-5.9-5.9-5.9s-5.9 2.642-5.9 5.9c0 0.026 0 0.052 0.001 0.079l-0-0.004c0.042 3.226 2.667 5.826 5.9 5.826s5.858-2.599 5.9-5.822l0-0.004zM14.581 15.084c-3.646-2.232-9.553-2.845-12.524-3.015-0.999-0.056-1.832 0.704-1.832 1.666v13.692c0 0.88 0.712 1.615 1.628 1.662 2.682 0.141 8.111 0.656 11.864 2.546 0.576 0.29 1.258-0.104 1.258-0.729v-15.118c0-0.001 0-0.002 0-0.004 0-0.296-0.157-0.555-0.392-0.698l-0.004-0.002zM29.86 12.070c-2.971 0.169-8.878 0.782-12.524 3.015-0.238 0.149-0.393 0.41-0.393 0.708 0 0.003 0 0.005 0 0.008v-0 15.106c0 0.626 0.684 1.021 1.261 0.73 3.752-1.888 9.177-2.404 11.86-2.544 0.917-0.048 1.628-0.782 1.628-1.663v-13.694c0-0.96-0.833-1.721-1.832-1.665z"></path>
</symbol>
<symbol id="icon-university" viewBox="0 0 34 32">
<path d="M34.067 6.933v1.133c0 0 0 0.001 0 0.001 0 0.313-0.254 0.566-0.566 0.566-0 0-0.001 0-0.001 0h-1.699v0.85c0 0.469-0.381 0.849-0.85 0.849h-27.767c-0.469-0.001-0.848-0.38-0.849-0.849v-0.85h-1.701c0 0 0 0 0 0-0.313 0-0.566-0.254-0.566-0.566 0-0 0-0.001 0-0.001v0-1.133c0-0.234 0.143-0.435 0.346-0.521l0.004-0.001 16.434-6.236c0.064-0.027 0.138-0.043 0.217-0.043s0.153 0.016 0.22 0.045l-0.004-0.001 16.434 6.236c0.207 0.087 0.35 0.289 0.35 0.523 0 0 0 0 0 0v-0zM32.367 28.467h-30.601c-0.939 0-1.699 0.761-1.699 1.699v1.134c0 0 0 0 0 0 0 0.312 0.253 0.566 0.565 0.566h32.867c0 0 0.001 0 0.001 0 0.313 0 0.566-0.254 0.566-0.566 0 0 0 0 0 0v0-1.135c0-0.939-0.762-1.699-1.7-1.699zM5.733 11.467v13.6h-2.549c-0.47 0-0.85 0.381-0.85 0.85v1.417h29.467v-1.417c0-0.47-0.381-0.85-0.85-0.85v0h-2.55v-13.6h-4.533v13.6h-4.533v-13.6h-4.533v13.6h-4.533v-13.6h-4.533z"></path>
</symbol>
<symbol id="icon-pencil" viewBox="0 0 32 32">
<path d="M31.119 8.881l-2.882 2.882c-0.136 0.136-0.324 0.22-0.531 0.22s-0.395-0.084-0.531-0.22l-6.938-6.937c-0.136-0.136-0.221-0.324-0.221-0.532s0.084-0.396 0.221-0.532v0l2.882-2.88c0.544-0.542 1.294-0.877 2.122-0.877s1.578 0.335 2.122 0.877l3.755 3.755c0.545 0.542 0.882 1.293 0.882 2.122s-0.337 1.58-0.882 2.122l-0 0zM17.763 6.237l-16.413 16.413-1.324 7.593c-0.014 0.077-0.022 0.167-0.022 0.258 0 0.83 0.673 1.502 1.502 1.502 0.091 0 0.18-0.008 0.267-0.024l-0.009 0.001 7.593-1.331 16.413-16.413c0.136-0.136 0.22-0.324 0.22-0.531s-0.084-0.395-0.22-0.531l-6.936-6.938c-0.137-0.136-0.326-0.22-0.535-0.22s-0.398 0.084-0.535 0.22l0-0zM7.755 21.244c-0.159-0.158-0.258-0.377-0.258-0.619s0.099-0.461 0.258-0.619l9.626-9.625c0.158-0.159 0.377-0.257 0.618-0.257s0.46 0.098 0.618 0.257l0 0c0.159 0.158 0.258 0.377 0.258 0.619s-0.099 0.461-0.258 0.619l-9.625 9.625c-0.158 0.159-0.377 0.258-0.619 0.258s-0.461-0.099-0.619-0.258l-0-0zM5.499 26.5h3v2.268l-4.031 0.707-1.944-1.944 0.706-4.031h2.268v3z"></path>
</symbol>
<symbol id="icon-facebook" viewBox="0 0 32 32">
<path d="M31.5 16.343c0 7.75-5.687 14.188-13.125 15.312v-10.812h3.625l0.688-4.5h-4.313v-2.875c0-1.25 0.624-2.437 2.562-2.437h1.938v-3.813s-1.751-0.313-3.501-0.313c-3.5 0-5.812 2.187-5.812 6.062v3.376h-3.938v4.5h3.938v10.812c-7.438-1.125-13.062-7.562-13.062-15.312 0-8.562 6.938-15.5 15.5-15.5s15.5 6.938 15.5 15.5z"></path>
</symbol>
<symbol id="icon-twitter" viewBox="0 0 37 32">
<path d="M33.469 8.284v1.021c0 10.135-7.657 21.728-21.729 21.728-4.375 0-8.385-1.238-11.74-3.426 0.583 0.073 1.167 0.146 1.823 0.146 3.573 0 6.854-1.241 9.479-3.282-3.355-0.073-6.197-2.26-7.147-5.323 0.511 0.074 0.949 0.146 1.459 0.146 0.656 0 1.385-0.146 1.968-0.292-3.499-0.729-6.125-3.791-6.125-7.509v-0.074c1.021 0.583 2.261 0.875 3.5 0.948-2.075-1.364-3.426-3.682-3.426-6.315 0-0.010 0-0.021 0-0.031v0.002c0-1.458 0.364-2.77 1.021-3.865 3.833 4.613 9.441 7.637 15.761 8.018l0.062 0.003c-0.138-0.525-0.218-1.127-0.22-1.749v-0.001c0-0.001 0-0.001 0-0.002 0-4.228 3.427-7.655 7.655-7.655 0.001 0 0.002 0 0.002 0h-0c2.188 0 4.157 0.875 5.615 2.405 1.819-0.404 3.427-1.058 4.886-1.936l-0.073 0.041c-0.583 1.824-1.75 3.281-3.355 4.229 1.618-0.17 3.099-0.583 4.465-1.204l-0.090 0.037c-1.021 1.532-2.334 2.844-3.792 3.938z"></path>
</symbol>
<symbol id="icon-youtube" viewBox="0 0 45 32">
<path d="M43.665 5.831c0.972 3.403 0.972 10.694 0.972 10.694s0 7.211-0.972 10.695c-0.486 1.944-2.027 3.401-3.89 3.889-3.483 0.891-17.256 0.891-17.256 0.891s-13.855 0-17.338-0.891c-1.863-0.486-3.403-1.944-3.889-3.889-0.972-3.484-0.972-10.695-0.972-10.695s0-7.291 0.972-10.694c0.486-1.944 2.025-3.484 3.887-3.97 3.486-0.972 17.339-0.972 17.339-0.972s13.773 0 17.256 0.972c1.864 0.486 3.404 2.027 3.89 3.97zM17.982 23.087l11.505-6.562-11.505-6.562v13.125z"></path>
</symbol>
<symbol id="icon-linkedin" viewBox="0 0 32 32">
<path d="M7.25 32h-6.562v-21.099h6.562v21.099zM3.934 8.078c-2.047 0-3.74-1.764-3.74-3.881 0-2.046 1.692-3.74 3.739-3.74 2.116 0 3.81 1.694 3.81 3.74 0 2.117-1.693 3.881-3.81 3.881zM31.736 32h-6.492v-10.232c0-2.47-0.070-5.574-3.458-5.574-3.386 0-3.881 2.611-3.881 5.363v10.443h-6.562v-21.099h6.28v2.893h0.071c0.917-1.623 3.035-3.387 6.209-3.387 6.633 0 7.904 4.375 7.904 10.020v11.573h-0.071z"></path>
</symbol>
</defs>
</svg>
