<!-- Generated by IcoMoon.io -->
<svg version="1.1" xmlns="http://www.w3.org/2000/svg" width="37" height="32" viewBox="0 0 37 32">
<path d="M33.469 8.284v1.021c0 10.135-7.657 21.728-21.729 21.728-4.375 0-8.385-1.238-11.74-3.426 0.583 0.073 1.167 0.146 1.823 0.146 3.573 0 6.854-1.241 9.479-3.282-3.355-0.073-6.197-2.26-7.147-5.323 0.511 0.074 0.949 0.146 1.459 0.146 0.656 0 1.385-0.146 1.968-0.292-3.499-0.729-6.125-3.791-6.125-7.509v-0.074c1.021 0.583 2.261 0.875 3.5 0.948-2.075-1.364-3.426-3.682-3.426-6.315 0-0.010 0-0.021 0-0.031v0.002c0-1.458 0.364-2.77 1.021-3.865 3.833 4.613 9.441 7.637 15.761 8.018l0.062 0.003c-0.138-0.525-0.218-1.127-0.22-1.749v-0.001c0-0.001 0-0.001 0-0.002 0-4.228 3.427-7.655 7.655-7.655 0.001 0 0.002 0 0.002 0h-0c2.188 0 4.157 0.875 5.615 2.405 1.819-0.404 3.427-1.058 4.886-1.936l-0.073 0.041c-0.583 1.824-1.75 3.281-3.355 4.229 1.618-0.17 3.099-0.583 4.465-1.204l-0.090 0.037c-1.021 1.532-2.334 2.844-3.792 3.938z"></path>
</svg>
