<svg xmlns="http://www.w3.org/2000/svg" width="34" height="34" fill="none"><path fill="#fff" d="M23.224 6.552a6.269 6.269 0 1 0-12.537 0 6.269 6.269 0 0 0 12.537 0Zm-7.732 9.475c-3.874-2.372-10.15-3.023-13.307-3.203-1.061-.06-1.946.748-1.946 1.77v14.548c0 .935.757 1.716 1.73 1.766 2.85.15 8.618.697 12.605 2.705.612.308 1.337-.111 1.337-.775V16.775a.869.869 0 0 0-.42-.748Zm16.234-3.203c-3.157.18-9.433.831-13.307 3.203a.885.885 0 0 0-.418.76v16.05c0 .665.727 1.085 1.34.776 3.987-2.006 9.751-2.554 12.601-2.703.974-.051 1.73-.831 1.73-1.767v-14.55c0-1.02-.885-1.829-1.946-1.769Z"/></svg>