<svg xmlns="http://www.w3.org/2000/svg" width="34" height="34" fill="none"><path fill="#fff" d="m33.064 9.436-3.062 3.062a.798.798 0 0 1-1.128 0l-7.372-7.371a.798.798 0 0 1 0-1.13l3.062-3.06a3.194 3.194 0 0 1 4.509 0l3.99 3.99a3.182 3.182 0 0 1 0 4.51ZM18.873 6.627 1.434 24.066.027 32.134a1.596 1.596 0 0 0 1.846 1.846l8.068-1.414L27.38 15.127a.798.798 0 0 0 0-1.128l-7.37-7.372a.806.806 0 0 0-1.136 0ZM8.24 22.572a.926.926 0 0 1 0-1.315L18.468 11.03a.926.926 0 0 1 1.314 0 .926.926 0 0 1 0 1.315L9.556 22.572a.926.926 0 0 1-1.315 0Zm-2.397 5.584H9.03v2.41l-4.283.751-2.065-2.065.75-4.283h2.41v3.187Z"/></svg>