<svg xmlns="http://www.w3.org/2000/svg" width="35" height="30" fill="none"><path fill="#fff" d="M31.377 7.766v.957c0 9.502-7.178 20.37-20.371 20.37-4.102 0-7.861-1.161-11.006-3.212.547.068 1.094.137 1.709.137 3.35 0 6.426-1.163 8.887-3.077-3.145-.068-5.81-2.119-6.7-4.99.479.069.89.137 1.368.137.615 0 1.298-.137 1.845-.274-3.28-.683-5.742-3.554-5.742-7.04v-.069c.957.547 2.12.82 3.281.889a7.062 7.062 0 0 1-3.212-5.948c0-1.367.341-2.597.957-3.623a20.825 20.825 0 0 0 14.834 7.52 6.738 6.738 0 0 1-.206-1.64A7.177 7.177 0 0 1 24.2.724c2.051 0 3.897.82 5.264 2.255a15.16 15.16 0 0 0 4.512-1.777c-.547 1.71-1.641 3.076-3.145 3.965a13.453 13.453 0 0 0 4.102-1.094c-.957 1.436-2.188 2.666-3.555 3.692Z"/></svg>